<svg class="services-back-end__StyledSVG-sc-1ehbl2y-0 bWwDio" width="87" height="65" viewBox="0 0 87 75" aria-labelledby="back-end" xmlns="http://www.w3.org/2000/svg" fill="none"><title>Back End</title><rect x="1.5" y="1.5" width="84" height="16" stroke="#1B2652" stroke-width="3"></rect><rect x="1.5" y="25.5" width="84" height="17" stroke="#1B2652" stroke-width="3"></rect><rect x="1.5" y="49.5" width="84" height="17" stroke="#1B2652" stroke-width="3"></rect><line x1="10.5" y1="66" x2="10.5" y2="75" stroke="#1B2652" stroke-width="3"></line><line x1="76.5" y1="66" x2="76.5" y2="75" stroke="#1B2652" stroke-width="3"></line><line x1="45.5" y1="18" x2="45.5" y2="25" stroke="#1B2652" stroke-width="3"></line><line x1="45.5" y1="42" x2="45.5" y2="49" stroke="#1B2652" stroke-width="3"></line><line x1="7.5" y1="30" x2="7.5" y2="39" stroke="#F04C22" stroke-width="3" class="services-back-end__StyledLine1-sc-1ehbl2y-1"></line><line x1="7.5" y1="54" x2="7.5" y2="63" stroke="#1B2652" stroke-width="3"></line><line x1="7.5" y1="5" x2="7.5" y2="14" stroke="#1B2652" stroke-width="3"></line><line x1="17.5" y1="30" x2="17.5" y2="39" stroke="#F04C22" stroke-width="3" class="services-back-end__StyledLine2-sc-1ehbl2y-2"></line><line x1="17.5" y1="54" x2="17.5" y2="63" stroke="#1B2652" stroke-width="3"></line><line x1="17.5" y1="5" x2="17.5" y2="14" stroke="#1B2652" stroke-width="3"></line><line x1="27.5" y1="30" x2="27.5" y2="39" stroke="#F04C22" stroke-width="3" class="services-back-end__StyledLine3-sc-1ehbl2y-3"></line><line x1="27.5" y1="54" x2="27.5" y2="63" stroke="#1B2652" stroke-width="3"></line><line x1="27.5" y1="5" x2="27.5" y2="14" stroke="#1B2652" stroke-width="3"></line><circle cx="75.5" cy="8.5" r="3" stroke="#1B2652" stroke-width="3"></circle><circle cx="75.5" cy="33.5" r="3" stroke="#F04C22" stroke-width="3"></circle><circle cx="75.5" cy="57.5" r="3" stroke="#1B2652" stroke-width="3"></circle></svg>