<svg xmlns="http://www.w3.org/2000/svg" width="170" height="170" viewBox="0 0 170 170" fill="none">
<path d="M66.2131 64.39H43.937V81.5293H66.2131V64.39Z" fill="#FFA121"/>
<path d="M153.178 64.39H130.901V81.5293H153.178V64.39Z" fill="#FFA121"/>
<path d="M109.697 96.0457H87.4209V113.185H109.697V96.0457Z" fill="#FFA121"/>
<path d="M153.178 128.067H130.901V145.206H153.178V128.067Z" fill="#FFA121"/>
<path fill-rule="evenodd" clip-rule="evenodd" d="M26.4004 33.2854L26.4059 33.2854L115.318 33.2854C117.905 33.2912 120.383 34.3211 122.212 36.1498C124.04 37.9784 125.07 40.457 125.076 43.0431V49.3545C125.076 50.7185 123.971 51.8242 122.607 51.8242C121.243 51.8242 120.137 50.7185 120.137 49.3545L120.137 43.0543C120.137 43.0534 120.137 43.0526 120.137 43.0517C120.133 41.7727 119.624 40.5469 118.719 39.6424C117.815 38.7379 116.589 38.2282 115.31 38.2247H26.409C25.1298 38.2282 23.9041 38.7379 22.9996 39.6424C22.0951 40.5469 21.5854 41.7727 21.5819 43.0517V150.886C21.5854 152.166 22.0951 153.391 22.9996 154.296C23.9047 155.201 25.1314 155.711 26.4115 155.714H115.307C116.586 155.706 117.81 155.195 118.714 154.291C119.619 153.387 120.13 152.162 120.137 150.883V148.782C120.137 147.418 121.243 146.312 122.607 146.312C123.971 146.312 125.076 147.418 125.076 148.782V150.89L125.076 150.901C125.065 153.484 124.033 155.957 122.207 157.784C120.381 159.61 117.907 160.641 115.324 160.653L115.313 160.653H26.4004C23.8143 160.647 21.3357 159.617 19.507 157.788C17.6783 155.96 16.6484 153.481 16.6426 150.895L16.6426 150.89V43.0431C16.6484 40.457 17.6783 37.9784 19.507 36.1498C21.3357 34.3211 23.8143 33.2912 26.4004 33.2854Z" fill="#28292B"/>
<path fill-rule="evenodd" clip-rule="evenodd" d="M33.7524 91.091C33.7524 89.727 34.8581 88.6213 36.2221 88.6213H59.272C60.636 88.6213 61.7417 89.727 61.7417 91.091V107.506C61.7417 108.87 60.636 109.975 59.272 109.975H36.2221C34.8581 109.975 33.7524 108.87 33.7524 107.506V91.091ZM38.6917 93.5606V105.036H56.8024V93.5606H38.6917Z" fill="#28292B"/>
<path fill-rule="evenodd" clip-rule="evenodd" d="M120.712 122.754C120.712 121.39 121.818 120.284 123.182 120.284H146.232C147.595 120.284 148.701 121.39 148.701 122.754V139.169C148.701 140.533 147.595 141.638 146.232 141.638H123.182C121.818 141.638 120.712 140.533 120.712 139.169V122.754ZM125.651 125.224V136.699H143.762V125.224H125.651Z" fill="#28292B"/>
<path fill-rule="evenodd" clip-rule="evenodd" d="M56.7998 67.6139C56.7998 66.25 57.9055 65.1443 59.2694 65.1443H123.184C124.548 65.1443 125.653 66.25 125.653 67.6139C125.653 68.9779 124.548 70.0836 123.184 70.0836H59.2694C57.9055 70.0836 56.7998 68.9779 56.7998 67.6139Z" fill="#28292B"/>
<path fill-rule="evenodd" clip-rule="evenodd" d="M47.6444 73.3604C49.0084 73.3604 50.1141 74.466 50.1141 75.83V91.0924C50.1141 92.4563 49.0084 93.562 47.6444 93.562C46.2805 93.562 45.1748 92.4563 45.1748 91.0924V75.83C45.1748 74.466 46.2805 73.3604 47.6444 73.3604Z" fill="#28292B"/>
<path fill-rule="evenodd" clip-rule="evenodd" d="M56.7998 99.2902C56.7998 97.9263 57.9055 96.8206 59.2694 96.8206H79.6522C81.0161 96.8206 82.1218 97.9263 82.1218 99.2902C82.1218 100.654 81.0161 101.76 79.6522 101.76H59.2694C57.9055 101.76 56.7998 100.654 56.7998 99.2902Z" fill="#28292B"/>
<path fill-rule="evenodd" clip-rule="evenodd" d="M100.229 99.2902C100.229 97.9263 101.335 96.8206 102.699 96.8206H123.18C124.544 96.8206 125.65 97.9263 125.65 99.2902C125.65 100.654 124.544 101.76 123.18 101.76H102.699C101.335 101.76 100.229 100.654 100.229 99.2902Z" fill="#28292B"/>
<path fill-rule="evenodd" clip-rule="evenodd" d="M91.2266 105.037C92.5905 105.037 93.6962 106.142 93.6962 107.506V130.951C93.6962 132.315 92.5905 133.421 91.2266 133.421H59.2694C57.9055 133.421 56.7998 132.315 56.7998 130.951C56.7998 129.587 57.9055 128.482 59.2694 128.482H88.7569V107.506C88.7569 106.142 89.8626 105.037 91.2266 105.037Z" fill="#28292B"/>
<path fill-rule="evenodd" clip-rule="evenodd" d="M77.1821 91.091C77.1821 89.727 78.2878 88.6213 79.6518 88.6213H102.702C104.066 88.6213 105.171 89.727 105.171 91.091V107.506C105.171 108.87 104.066 109.975 102.702 109.975H79.6518C78.2878 109.975 77.1821 108.87 77.1821 107.506V91.091ZM82.1214 93.5606V105.036H100.232V93.5606H82.1214Z" fill="#28292B"/>
<path fill-rule="evenodd" clip-rule="evenodd" d="M33.7524 59.4013C33.7524 58.0373 34.8581 56.9316 36.2221 56.9316H59.272C60.636 56.9316 61.7417 58.0373 61.7417 59.4013V75.8161C61.7417 77.1801 60.636 78.2858 59.272 78.2858H36.2221C34.8581 78.2858 33.7524 77.1801 33.7524 75.8161V59.4013ZM38.6917 61.8709V73.3465H56.8024V61.8709H38.6917Z" fill="#28292B"/>
<path fill-rule="evenodd" clip-rule="evenodd" d="M120.712 59.4296C120.712 58.0657 121.818 56.96 123.182 56.96H146.232C147.595 56.96 148.701 58.0657 148.701 59.4296V75.8445C148.701 77.2084 147.595 78.3141 146.232 78.3141H123.182C121.818 78.3141 120.712 77.2084 120.712 75.8445V59.4296ZM125.651 61.8992V73.3748H143.762V61.8992H125.651Z" fill="#28292B"/>
<path fill-rule="evenodd" clip-rule="evenodd" d="M120.712 91.091C120.712 89.727 121.818 88.6213 123.182 88.6213H146.232C147.595 88.6213 148.701 89.727 148.701 91.091V107.506C148.701 108.87 147.595 109.975 146.232 109.975H123.182C121.818 109.975 120.712 108.87 120.712 107.506V91.091ZM125.651 93.5606V105.036H143.762V93.5606H125.651Z" fill="#28292B"/>
<path fill-rule="evenodd" clip-rule="evenodd" d="M33.7524 122.754C33.7524 121.39 34.8581 120.284 36.2221 120.284H59.272C60.636 120.284 61.7417 121.39 61.7417 122.754V139.169C61.7417 140.533 60.636 141.638 59.272 141.638H36.2221C34.8581 141.638 33.7524 140.533 33.7524 139.169V122.754ZM38.6917 125.224V136.699H56.8024V125.224H38.6917Z" fill="#28292B"/>
</svg>