<svg xmlns="http://www.w3.org/2000/svg" width="169" height="169" viewBox="0 0 169 169" fill="none">
<path d="M143.093 52.4724H126.482V111.973H143.093V52.4724Z" fill="#FFA121"/>
<path d="M114.858 65.539H98.2466V111.973H114.858V65.539Z" fill="#FFA121"/>
<path d="M86.6227 79.3888H70.0112V111.973H86.6227V79.3888Z" fill="#FFA121"/>
<path d="M145.072 127.78H23.9278C20.9066 127.716 18.0344 126.456 15.9406 124.277C13.8468 122.098 12.702 119.178 12.7573 116.157V31.6566C12.702 28.6353 13.8468 25.7152 15.9406 23.5364C18.0344 21.3576 20.9066 20.0976 23.9278 20.0327H145.072C148.093 20.0976 150.965 21.3576 153.059 23.5364C155.153 25.7152 156.298 28.6353 156.242 31.6566V116.157C156.298 119.178 155.153 122.098 153.059 124.277C150.965 126.456 148.093 127.716 145.072 127.78ZM23.9278 25.3912C22.3788 25.4609 20.9196 26.1381 19.8664 27.2761C18.8133 28.4142 18.2509 29.9213 18.3013 31.4711V115.971C18.2509 117.521 18.8133 119.028 19.8664 120.166C20.9196 121.304 22.3788 121.981 23.9278 122.051H145.072C146.621 121.981 148.08 121.304 149.133 120.166C150.186 119.028 150.749 117.521 150.698 115.971V31.4711C150.749 29.9213 150.186 28.4142 149.133 27.2761C148.08 26.1381 146.621 25.4609 145.072 25.3912H23.9278Z" fill="#28292B"/>
<path d="M109.891 149.153H59.109C58.7248 149.186 58.338 149.139 57.9731 149.015C57.6081 148.89 57.2729 148.692 56.9888 148.431C56.7047 148.17 56.4779 147.854 56.3227 147.501C56.1675 147.148 56.0874 146.766 56.0874 146.381C56.0874 145.995 56.1675 145.614 56.3227 145.261C56.4779 144.908 56.7047 144.591 56.9888 144.331C57.2729 144.07 57.6081 143.871 57.9731 143.747C58.338 143.623 58.7248 143.576 59.109 143.609H109.891C110.276 143.576 110.662 143.623 111.027 143.747C111.392 143.871 111.727 144.07 112.012 144.331C112.296 144.591 112.522 144.908 112.678 145.261C112.833 145.614 112.913 145.995 112.913 146.381C112.913 146.766 112.833 147.148 112.678 147.501C112.522 147.854 112.296 148.17 112.012 148.431C111.727 148.692 111.392 148.89 111.027 149.015C110.662 149.139 110.276 149.186 109.891 149.153Z" fill="#28292B"/>
<path d="M51.5246 55.2548H29.8844C29.1465 55.2548 28.4388 54.9616 27.917 54.4398C27.3952 53.918 27.1021 53.2104 27.1021 52.4724C27.1021 51.7345 27.3952 51.0268 27.917 50.505C28.4388 49.9833 29.1465 49.6901 29.8844 49.6901H51.5246C52.2625 49.6901 52.9702 49.9833 53.492 50.505C54.0138 51.0268 54.3069 51.7345 54.3069 52.4724C54.3069 53.2104 54.0138 53.918 53.492 54.4398C52.9702 54.9616 52.2625 55.2548 51.5246 55.2548Z" fill="#28292B"/>
<path d="M71.3306 44.3934H29.8844C29.5002 44.4266 29.1134 44.3795 28.7484 44.2553C28.3835 44.131 28.0483 43.9323 27.7642 43.6716C27.4801 43.411 27.2533 43.0942 27.0981 42.7412C26.9429 42.3883 26.8628 42.0069 26.8628 41.6214C26.8628 41.2359 26.9429 40.8545 27.0981 40.5016C27.2533 40.1486 27.4801 39.8318 27.7642 39.5712C28.0483 39.3105 28.3835 39.1118 28.7484 38.9875C29.1134 38.8633 29.5002 38.8162 29.8844 38.8494H71.3306C71.7147 38.8162 72.1015 38.8633 72.4665 38.9875C72.8315 39.1118 73.1666 39.3105 73.4507 39.5712C73.7348 39.8318 73.9617 40.1486 74.1168 40.5016C74.272 40.8545 74.3521 41.2359 74.3521 41.6214C74.3521 42.0069 74.272 42.3883 74.1168 42.7412C73.9617 43.0942 73.7348 43.411 73.4507 43.6716C73.1666 43.9323 72.8315 44.131 72.4665 44.2553C72.1015 44.3795 71.7147 44.4266 71.3306 44.3934Z" fill="#28292B"/>
<path d="M136.024 109.232H119.537C118.802 109.226 118.1 108.931 117.583 108.41C117.065 107.888 116.775 107.184 116.775 106.449V46.846C116.775 46.1135 117.066 45.4111 117.584 44.8931C118.102 44.3752 118.804 44.0843 119.537 44.0843H136.024C136.759 44.0842 137.463 44.3745 137.985 44.8919C138.506 45.4092 138.801 46.1116 138.807 46.846V106.346C138.818 106.72 138.754 107.091 138.619 107.44C138.485 107.788 138.282 108.106 138.023 108.374C137.763 108.643 137.453 108.858 137.11 109.005C136.767 109.152 136.398 109.229 136.024 109.232ZM122.195 103.667H133.242V49.6283H122.278L122.195 103.667Z" fill="#28292B"/>
<path d="M107.871 109.232H91.2598C90.5255 109.226 89.8231 108.931 89.3057 108.41C88.7884 107.888 88.4981 107.184 88.4981 106.449V59.9126C88.4954 59.5482 88.5648 59.1868 88.7024 58.8494C88.84 58.5119 89.043 58.205 89.2997 57.9464C89.5564 57.6878 89.8618 57.4825 90.1982 57.3424C90.5346 57.2024 90.8954 57.1302 91.2598 57.1302H107.871C108.609 57.1302 109.317 57.4234 109.839 57.9452C110.36 58.467 110.654 59.1747 110.654 59.9126V106.346C110.665 106.72 110.601 107.091 110.466 107.44C110.332 107.788 110.129 108.106 109.87 108.374C109.61 108.643 109.3 108.858 108.957 109.005C108.614 109.152 108.245 109.229 107.871 109.232ZM94.0422 103.667H105.11V62.6949H94.0422V103.667Z" fill="#28292B"/>
<path d="M79.6359 109.232H63.0244C62.2901 109.226 61.5877 108.931 61.0703 108.41C60.553 107.888 60.2627 107.184 60.2627 106.449V73.7623C60.2627 73.028 60.553 72.3234 61.0703 71.8022C61.5877 71.281 62.2901 70.9854 63.0244 70.98H79.6359C80.3757 70.98 81.0855 71.2725 81.6106 71.7937C82.1356 72.3149 82.4333 73.0225 82.4388 73.7623V106.346C82.4498 106.721 82.3855 107.095 82.2496 107.444C82.1137 107.794 81.9089 108.113 81.6476 108.382C81.3862 108.651 81.0734 108.865 80.7279 109.011C80.3823 109.157 80.011 109.232 79.6359 109.232ZM65.8067 103.667H76.8535V76.5446H65.8067V103.667Z" fill="#28292B"/>
</svg>