<svg xmlns="http://www.w3.org/2000/svg" width="256" height="256" viewBox="0 0 100 100"><path fill="#228be6" d="M28.74 58.30L28.74 58.30Q28.47 58.30 27.93 58.09L27.93 58.09L20.58 54.85Q20.20 54.19 20.20 53.44L20.20 53.44Q20.20 53.02 20.39 52.67Q20.58 52.33 20.97 52.12L20.97 52.12L28.89 48.28Q29.28 48.64 29.51 49.09Q29.73 49.54 29.77 49.87L29.77 49.87Q29.77 50.41 29.31 50.62L29.31 50.62L23.38 53.53L29.82 56.41Q29.82 57.22 29.46 57.76Q29.10 58.30 28.74 58.30ZM32.70 61.24L32.70 61.24Q32.46 61.24 32.05 61.21Q31.63 61.18 31.17 61.15L31.17 61.15L36.52 40.51Q36.60 40.09 37.45 40.09L37.45 40.09Q37.74 40.09 38.06 40.12Q38.38 40.15 38.59 40.18L38.59 40.18L43.95 60.73Q44.02 60.97 43.82 61.10Q43.63 61.24 42.91 61.24L42.91 61.24Q42.63 61.24 42.29 61.22Q41.95 61.21 41.46 61.18L41.46 61.18L38.64 49.36Q38.41 48.34 38.20 47.29Q37.98 46.24 37.82 45.26Q37.66 44.29 37.59 43.57L37.59 43.57Q37.53 44.29 37.37 45.26Q37.20 46.24 36.99 47.29Q36.78 48.34 36.52 49.36L36.52 49.36L33.84 60.76Q33.78 61.00 33.60 61.12Q33.42 61.24 32.70 61.24ZM41.44 55.84L34.27 55.84L34.27 53.62L41.44 53.62L41.44 55.84ZM49.72 61.48L49.72 61.48Q48.84 61.48 48.09 61.27Q47.34 61.06 46.73 60.49Q46.12 59.92 45.66 58.82Q45.22 57.73 44.98 55.94Q44.73 54.16 44.73 51.55L44.73 51.55Q44.73 48.46 45.08 46.37Q45.42 44.29 46.02 43.01Q46.63 41.74 47.39 41.05Q48.16 40.36 49.00 40.12Q49.84 39.88 50.65 39.88L50.65 39.88Q51.76 39.88 52.37 40.13Q52.98 40.39 53.23 40.76Q53.47 41.14 53.47 41.53L53.47 41.53Q53.47 41.95 53.34 42.34Q53.23 42.73 53.08 43.00L53.08 43.00Q52.92 42.88 52.64 42.71Q52.36 42.55 51.97 42.41Q51.58 42.28 51.13 42.28L51.13 42.28Q50.55 42.28 50 42.47Q49.45 42.67 48.95 43.22Q48.45 43.78 48.09 44.80Q47.73 45.82 47.51 47.44Q47.29 49.06 47.29 51.43L47.29 51.43Q47.29 53.71 47.51 55.15Q47.73 56.59 48.13 57.38Q48.52 58.18 49.07 58.48Q49.63 58.78 50.29 58.78L50.29 58.78Q51.16 58.78 51.91 58.48Q52.66 58.18 53.05 57.85L53.05 57.85Q53.20 58.15 53.31 58.54Q53.44 58.93 53.44 59.32L53.44 59.32Q53.44 59.89 52.97 60.38Q52.51 60.88 51.66 61.18Q50.83 61.48 49.72 61.48ZM59.10 61.78L59.10 61.78L65.86 38.89Q65.94 38.59 66.11 38.45Q66.28 38.32 66.81 38.27Q67.36 38.23 68.56 38.23L68.56 38.23L61.80 61.18Q61.74 61.45 61.56 61.58Q61.38 61.72 60.84 61.75Q60.30 61.78 59.10 61.78ZM79.00 54.76L71.08 58.63Q70.69 58.24 70.48 57.79Q70.27 57.34 70.23 57.01L70.23 57.01Q70.23 56.47 70.66 56.26L70.66 56.26L76.63 53.35L70.15 50.47Q70.20 49.69 70.55 49.13Q70.90 48.58 71.26 48.58L71.26 48.58Q71.50 48.58 72.06 48.79L72.06 48.79L79.39 52.03Q79.81 52.69 79.81 53.44L79.81 53.44Q79.81 53.86 79.61 54.20Q79.42 54.55 79.00 54.76L79.00 54.76Z"></path></svg>