<svg xmlns="http://www.w3.org/2000/svg" width="170" height="170" viewBox="0 0 170 170" fill="none">
<path d="M117.342 118.656L127.283 114.563L121.981 101.755L112.04 105.848C110.076 103.105 107.674 100.703 104.932 98.7395L109.024 88.798L96.2162 83.5787L92.1236 93.5203C88.794 92.9653 85.3956 92.9653 82.066 93.5203L77.9569 83.5787L65.1489 88.8809L69.2581 98.8224C66.5034 100.779 64.1 103.188 62.1499 105.947L52.2083 101.838L46.8896 114.646L56.8312 118.755C56.2762 122.085 56.2762 125.483 56.8312 128.813L46.8896 132.905L52.2083 145.713L62.1499 141.621C64.1153 144.368 66.523 146.77 69.2747 148.729L65.1655 158.67L77.9735 163.972L82.0826 154.031C85.4122 154.586 88.8106 154.586 92.1401 154.031L96.2327 163.972L109.041 158.67L104.948 148.729C107.691 146.765 110.092 144.363 112.056 141.621L121.998 145.713L127.3 132.905L117.358 128.813C117.917 125.45 117.912 122.017 117.342 118.656V118.656ZM101.005 129.459C99.6643 132.672 97.2523 135.321 94.179 136.956C91.1057 138.591 87.5608 139.111 84.1473 138.428C80.7338 137.744 77.6625 135.899 75.4557 133.207C73.249 130.515 72.0431 127.141 72.0431 123.66C72.0431 120.178 73.249 116.805 75.4557 114.112C77.6625 111.42 80.7338 109.575 84.1473 108.891C87.5608 108.208 91.1057 108.728 94.179 110.363C97.2523 111.998 99.6643 114.648 101.005 117.86C101.779 119.696 102.178 121.668 102.178 123.66C102.178 125.652 101.779 127.624 101.005 129.459V129.459Z" fill="#FFA121"/>
<path d="M150.05 85.5205C149.391 85.5205 148.759 85.2587 148.292 84.7926C147.826 84.3265 147.565 83.6943 147.565 83.0352V26.6998C147.565 26.612 147.53 26.5277 147.467 26.4655C147.405 26.4034 147.321 26.3685 147.233 26.3685H36.3685C36.2807 26.3685 36.1964 26.4034 36.1342 26.4655C36.0721 26.5277 36.0372 26.612 36.0372 26.6998V32.3334C36.0372 32.9926 35.7753 33.6247 35.3092 34.0908C34.8431 34.5569 34.211 34.8188 33.5518 34.8188C32.8926 34.8188 32.2604 34.5569 31.7943 34.0908C31.3282 33.6247 31.0664 32.9926 31.0664 32.3334V26.6998C31.0664 25.2936 31.625 23.945 32.6194 22.9507C33.6137 21.9563 34.9623 21.3977 36.3685 21.3977H147.233C148.639 21.3977 149.988 21.9563 150.982 22.9507C151.977 23.945 152.535 25.2936 152.535 26.6998V83.0352C152.535 83.6943 152.273 84.3265 151.807 84.7926C151.341 85.2587 150.709 85.5205 150.05 85.5205Z" fill="#28292B"/>
<path d="M19.4678 146.644C18.8086 146.644 18.1765 146.383 17.7104 145.916C17.2443 145.45 16.9824 144.818 16.9824 144.159V45.4729C16.9824 44.0667 17.541 42.7181 18.5354 41.7237C19.5297 40.7294 20.8783 40.1708 22.2846 40.1708H133.149C134.554 40.1751 135.9 40.7352 136.893 41.7286C137.887 42.722 138.447 44.068 138.451 45.4729V110.292C138.451 110.951 138.189 111.583 137.723 112.049C137.257 112.515 136.625 112.777 135.966 112.777C135.307 112.777 134.675 112.515 134.208 112.049C133.742 111.583 133.481 110.951 133.481 110.292V45.4729C133.481 45.385 133.446 45.3007 133.383 45.2386C133.321 45.1764 133.237 45.1415 133.149 45.1415H22.2846C22.1967 45.1415 22.1124 45.1764 22.0502 45.2386C21.9881 45.3007 21.9532 45.385 21.9532 45.4729V144.109C21.9598 144.44 21.9004 144.768 21.7785 145.076C21.6565 145.383 21.4745 145.663 21.243 145.899C21.0116 146.135 20.7354 146.323 20.4305 146.451C20.1257 146.579 19.7984 146.645 19.4678 146.644V146.644Z" fill="#28292B"/>
<path d="M120.159 67.741H20.3457C19.6866 67.741 19.0544 67.4792 18.5883 67.0131C18.1222 66.547 17.8604 65.9148 17.8604 65.2556C17.8604 64.5965 18.1222 63.9643 18.5883 63.4982C19.0544 63.0321 19.6866 62.7703 20.3457 62.7703H120.159C120.818 62.7703 121.45 63.0321 121.916 63.4982C122.382 63.9643 122.644 64.5965 122.644 65.2556C122.644 65.9148 122.382 66.547 121.916 67.0131C121.45 67.4792 120.818 67.741 120.159 67.741Z" fill="#28292B"/>
<path d="M33.553 56.4611H27.9195C27.2603 56.4611 26.6281 56.1993 26.162 55.7332C25.6959 55.2671 25.4341 54.6349 25.4341 53.9757C25.4341 53.3166 25.6959 52.6844 26.162 52.2183C26.6281 51.7522 27.2603 51.4904 27.9195 51.4904H33.553C34.2122 51.4904 34.8443 51.7522 35.3104 52.2183C35.7765 52.6844 36.0384 53.3166 36.0384 53.9757C36.0384 54.6349 35.7765 55.2671 35.3104 55.7332C34.8443 56.1993 34.2122 56.4611 33.553 56.4611V56.4611Z" fill="#28292B"/>
<path d="M51.1814 56.4611H45.5479C44.8887 56.4611 44.2565 56.1993 43.7904 55.7332C43.3243 55.2671 43.0625 54.6349 43.0625 53.9757C43.0625 53.3166 43.3243 52.6844 43.7904 52.2183C44.2565 51.7522 44.8887 51.4904 45.5479 51.4904H51.1814C51.8406 51.4904 52.4727 51.7522 52.9388 52.2183C53.4049 52.6844 53.6668 53.3166 53.6668 53.9757C53.6668 54.6349 53.4049 55.2671 52.9388 55.7332C52.4727 56.1993 51.8406 56.4611 51.1814 56.4611V56.4611Z" fill="#28292B"/>
<path d="M68.8285 56.4611H63.2447C62.5855 56.4611 61.9533 56.1993 61.4872 55.7332C61.0211 55.2671 60.7593 54.6349 60.7593 53.9757C60.7593 53.3166 61.0211 52.6844 61.4872 52.2183C61.9533 51.7522 62.5855 51.4904 63.2447 51.4904H68.8782C69.5373 51.4904 70.1695 51.7522 70.6356 52.2183C71.1017 52.6844 71.3636 53.3166 71.3636 53.9757C71.3636 54.6349 71.1017 55.2671 70.6356 55.7332C70.1695 56.1993 69.5373 56.4611 68.8782 56.4611H68.8285Z" fill="#28292B"/>
<path d="M135.967 136.837C135.308 136.837 134.675 136.575 134.209 136.109C133.743 135.642 133.481 135.01 133.481 134.351V128.701C133.481 128.042 133.743 127.41 134.209 126.944C134.675 126.478 135.308 126.216 135.967 126.216C136.626 126.216 137.258 126.478 137.724 126.944C138.19 127.41 138.452 128.042 138.452 128.701V134.351C138.452 135.01 138.19 135.642 137.724 136.109C137.258 136.575 136.626 136.837 135.967 136.837Z" fill="#28292B"/>
<path d="M150.049 106.33C149.39 106.33 148.758 106.068 148.291 105.602C147.825 105.136 147.563 104.504 147.563 103.845V93.0253C147.563 92.3661 147.825 91.734 148.291 91.2679C148.758 90.8018 149.39 90.5399 150.049 90.5399C150.708 90.5399 151.34 90.8018 151.806 91.2679C152.272 91.734 152.534 92.3661 152.534 93.0253V103.845C152.534 104.504 152.272 105.136 151.806 105.602C151.34 106.068 150.708 106.33 150.049 106.33V106.33Z" fill="#28292B"/>
<path d="M68.3812 167.191C68.056 167.191 67.7344 167.123 67.4367 166.992L54.3637 161.574C54.0527 161.451 53.77 161.266 53.5326 161.031C53.2952 160.796 53.108 160.514 52.9825 160.205C52.857 159.895 52.7958 159.563 52.8025 159.228C52.8092 158.894 52.8837 158.565 53.0215 158.26L56.4679 149.975C54.6139 148.469 52.9204 146.776 51.4143 144.922L43.1297 148.385C42.8238 148.52 42.4937 148.592 42.1594 148.596C41.825 148.6 41.4932 148.537 41.1838 148.41C40.8743 148.284 40.5937 148.096 40.3587 147.858C40.1237 147.62 39.939 147.337 39.8159 147.026L34.3978 133.953C34.15 133.342 34.15 132.659 34.3978 132.048C34.65 131.44 35.1326 130.958 35.7399 130.705L44.0245 127.259C43.7677 124.88 43.7677 122.48 44.0245 120.101L35.7399 116.655C35.1326 116.403 34.65 115.92 34.3978 115.313C34.15 114.702 34.15 114.018 34.3978 113.407L39.8159 100.334C39.9371 100.022 40.1206 99.7373 40.3553 99.4981C40.59 99.2589 40.8709 99.0701 41.1809 98.943C41.491 98.8158 41.8236 98.7532 42.1587 98.7587C42.4937 98.7643 42.8241 98.8381 43.1297 98.9755L51.4143 102.438C52.9118 100.577 54.6062 98.8822 56.4679 97.3848L53.0215 89.1002C52.8837 88.7956 52.8092 88.4662 52.8025 88.132C52.7958 87.7977 52.857 87.4656 52.9825 87.1557C53.108 86.8458 53.2952 86.5647 53.5326 86.3293C53.77 86.0939 54.0527 85.9092 54.3637 85.7863L67.4367 80.3682C67.7373 80.2373 68.0617 80.1698 68.3895 80.1698C68.7173 80.1698 69.0416 80.2373 69.3422 80.3682C69.6448 80.4899 69.9197 80.6715 70.1504 80.9022C70.381 81.1328 70.5626 81.4077 70.6843 81.7103L74.1472 89.9949C76.5207 89.7377 78.9151 89.7377 81.2886 89.9949L84.735 81.7103C84.8616 81.4024 85.0485 81.1228 85.2845 80.8879C85.5206 80.6531 85.8012 80.4677 86.1098 80.3427C86.4184 80.2178 86.7489 80.1556 87.0819 80.16C87.4148 80.1644 87.7436 80.2352 88.0488 80.3682L101.138 85.7863C101.746 86.0385 102.228 86.5212 102.481 87.1285C102.728 87.7395 102.728 88.423 102.481 89.0339L99.0176 97.3185C100.879 98.816 102.574 100.51 104.071 102.372L112.356 98.9258C112.661 98.7903 112.99 98.7177 113.323 98.7122C113.657 98.7066 113.988 98.7684 114.298 98.8936C114.607 99.0188 114.888 99.2051 115.123 99.4412C115.359 99.6773 115.545 99.9584 115.67 100.268L121.088 113.341C121.336 113.952 121.336 114.635 121.088 115.246C120.824 115.852 120.338 116.332 119.729 116.589L111.445 120.035C111.693 122.414 111.693 124.813 111.445 127.193L119.729 130.639C120.039 130.764 120.32 130.95 120.556 131.185C120.793 131.421 120.98 131.701 121.107 132.01C121.233 132.319 121.297 132.65 121.294 132.983C121.29 133.317 121.22 133.647 121.088 133.953L115.67 147.043C115.543 147.351 115.356 147.63 115.12 147.865C114.884 148.1 114.603 148.285 114.295 148.41C113.986 148.535 113.656 148.597 113.323 148.593C112.99 148.589 112.661 148.518 112.356 148.385L104.071 144.922C102.574 146.784 100.879 148.478 99.0176 149.975L102.481 158.26C102.729 158.865 102.729 159.544 102.481 160.149C102.225 160.758 101.744 161.244 101.138 161.508L88.0488 166.909C87.7513 167.041 87.4296 167.109 87.1044 167.109C86.7791 167.109 86.4574 167.041 86.1599 166.909C85.5474 166.659 85.0589 166.177 84.8013 165.567L81.3549 157.282C78.9809 157.531 76.5875 157.531 74.2135 157.282L70.7506 165.567C70.5594 166.021 70.2393 166.409 69.83 166.683C69.4206 166.957 68.94 167.105 68.4475 167.108L68.3812 167.191ZM82.8461 152.113C83.3367 152.115 83.8161 152.26 84.2252 152.531C84.6344 152.802 84.9555 153.186 85.1492 153.637L88.3802 161.458L96.8637 157.945L93.5498 150.125C93.3331 149.608 93.2987 149.032 93.4523 148.493C93.6059 147.954 93.9382 147.484 94.3948 147.159C96.9551 145.331 99.1947 143.091 101.023 140.531C101.35 140.073 101.824 139.74 102.366 139.587C102.908 139.433 103.486 139.468 104.005 139.686L111.826 142.917L115.338 134.434L107.518 131.203C106.997 130.986 106.564 130.6 106.291 130.106C106.017 129.613 105.918 129.042 106.01 128.485C106.532 125.359 106.532 122.167 106.01 119.041C105.915 118.488 106.011 117.92 106.282 117.429C106.553 116.938 106.983 116.554 107.501 116.34L115.322 113.026L111.809 104.543L103.988 107.857C103.472 108.073 102.896 108.108 102.357 107.954C101.818 107.801 101.348 107.468 101.023 107.012C99.1947 104.451 96.9551 102.212 94.3948 100.384C93.9369 100.056 93.6039 99.5823 93.4504 99.0405C93.2968 98.4986 93.3319 97.9207 93.5498 97.4014L96.8637 89.5807L88.3802 86.068L85.1492 93.8887C84.9326 94.4096 84.5463 94.8419 84.053 95.1156C83.5598 95.3893 82.9884 95.4883 82.4319 95.3965C79.3053 94.8746 76.114 94.8746 72.9874 95.3965C72.4348 95.4916 71.8663 95.3958 71.3754 95.1247C70.8845 94.8537 70.5006 94.4236 70.2866 93.9053L66.9728 86.0846L58.4894 89.5973L61.7203 97.418C61.9371 97.9348 61.9715 98.5101 61.8179 99.0491C61.6644 99.5881 61.3319 100.059 60.8754 100.384C58.3188 102.216 56.0799 104.455 54.2477 107.012C53.9182 107.468 53.4455 107.8 52.905 107.957C52.3644 108.113 51.7871 108.083 51.2652 107.873L43.4445 104.559L39.9319 113.043L47.7525 116.357C48.2739 116.568 48.7076 116.95 48.9818 117.442C49.256 117.933 49.3543 118.503 49.2603 119.057C48.7384 122.184 48.7384 125.375 49.2603 128.502C49.3533 129.056 49.2568 129.626 48.9862 130.119C48.7157 130.612 48.2869 131 47.7691 131.219L39.9484 134.45L43.4611 142.934L51.2818 139.703C51.8011 139.485 52.379 139.45 52.9209 139.603C53.4627 139.757 53.9364 140.09 54.2642 140.548C56.0909 143.109 58.3306 145.349 60.8919 147.175C61.348 147.505 61.6807 147.977 61.8369 148.518C61.993 149.059 61.9637 149.636 61.7535 150.158L58.4397 157.978L66.9231 161.491L70.2369 153.67C70.448 153.149 70.8308 152.715 71.3219 152.441C71.8131 152.167 72.3831 152.069 72.9377 152.163C76.0698 152.685 79.2667 152.685 82.3987 152.163C82.5449 152.126 82.6954 152.109 82.8461 152.113V152.113ZM77.7262 141.575C73.2961 141.576 69.0242 139.929 65.7412 136.954C62.4582 133.98 60.399 129.89 59.9642 125.482C59.5293 121.073 60.7498 116.66 63.3883 113.101C66.0269 109.543 69.8948 107.093 74.2396 106.228C78.5845 105.363 83.0957 106.146 86.8957 108.423C90.6958 110.7 93.5129 114.309 94.7992 118.548C96.0856 122.788 95.749 127.354 93.8552 131.359C91.9613 135.363 88.6455 138.521 84.5527 140.216C82.3902 141.119 80.0694 141.581 77.7262 141.575V141.575ZM77.7262 110.806C75.3882 110.804 73.0935 111.436 71.0872 112.637C69.0808 113.837 67.4382 115.56 66.3347 117.621C65.2311 119.682 64.7082 122.004 64.8216 124.34C64.9351 126.675 65.6807 128.935 66.9788 130.88C68.277 132.824 70.0788 134.38 72.1921 135.38C74.3054 136.38 76.6506 136.788 78.9774 136.559C81.3042 136.33 83.525 135.473 85.4029 134.081C87.2808 132.688 88.7451 130.811 89.6395 128.651C90.4467 126.691 90.7593 124.562 90.5498 122.452C90.3402 120.343 89.615 118.317 88.4379 116.554C87.2608 114.791 85.6681 113.344 83.8001 112.342C81.9321 111.339 79.8462 110.812 77.7262 110.806V110.806Z" fill="#28292B"/>
</svg>