<svg xmlns="http://www.w3.org/2000/svg" width="170" height="170" viewBox="0 0 170 170" fill="none">
<path d="M149.113 46.9828H80.1341C77.1249 47.0084 74.2462 48.2124 72.1183 50.3355C69.9904 52.4585 68.7835 55.3306 68.7578 58.3329V61.2767C77.8555 66.7228 83.7404 76.8954 83.7404 89.0797V95.965C83.7866 101.57 82.4406 107.099 79.8226 112.058C80.6586 112.483 81.4619 112.941 82.4126 113.432H91.1662H105.345C105.468 113.434 105.589 113.467 105.696 113.527C105.803 113.587 105.893 113.674 105.958 113.778C106.023 113.882 106.061 114 106.069 114.123C106.076 114.245 106.053 114.367 106.001 114.478L103.264 122.852C103.196 122.991 103.176 123.148 103.205 123.3C103.234 123.451 103.311 123.59 103.425 123.694C103.539 123.799 103.684 123.864 103.838 123.88C103.992 123.896 104.147 123.863 104.28 123.784L120.967 113.546C121.078 113.469 121.21 113.429 121.344 113.432H149.113C152.122 113.406 155.001 112.202 157.129 110.079C159.257 107.956 160.464 105.084 160.489 102.082V58.3329C160.464 55.3306 159.257 52.4585 157.129 50.3355C155.001 48.2124 152.122 47.0084 149.113 46.9828Z" fill="#FFA121"/>
<path d="M100.77 95.0834C100.12 95.0872 99.4957 94.8344 99.0323 94.3802L85.689 81.0185L99.0651 67.6731C99.5283 67.2177 100.152 66.9623 100.803 66.9623C101.453 66.9623 102.077 67.2177 102.54 67.6731C102.77 67.8998 102.953 68.1697 103.077 68.4673C103.202 68.7649 103.266 69.0842 103.266 69.4067C103.266 69.7292 103.202 70.0485 103.077 70.3461C102.953 70.6437 102.77 70.9136 102.54 71.1403L92.7049 80.9531L102.54 90.7659C102.936 91.1007 103.215 91.5518 103.339 92.0548C103.462 92.5577 103.422 93.0866 103.226 93.5657C103.029 94.0449 102.686 94.4497 102.245 94.7224C101.804 94.995 101.287 95.1213 100.77 95.0834V95.0834Z" fill="white"/>
<path d="M128.933 95.4432C128.61 95.4447 128.29 95.3818 127.992 95.2582C127.694 95.1346 127.423 94.9529 127.196 94.7235C126.739 94.2615 126.484 93.6387 126.484 92.99C126.484 92.3412 126.739 91.7184 127.196 91.2564L137.031 81.4436L127.196 71.6308C126.735 71.1688 126.477 70.5432 126.479 69.8914C126.48 69.2396 126.741 68.6152 127.204 68.1554C127.667 67.6956 128.294 67.4382 128.947 67.4397C129.601 67.4412 130.227 67.7017 130.687 68.1636L144.064 81.509L130.687 94.8544C130.203 95.2726 129.573 95.484 128.933 95.4432V95.4432Z" fill="white"/>
<path d="M111.638 94.7907C111.416 94.79 111.195 94.757 110.982 94.6925C110.367 94.5069 109.85 94.087 109.544 93.5237C109.237 92.9605 109.165 92.2992 109.343 91.6833L115.72 68.7868C115.909 68.1772 116.328 67.665 116.889 67.3588C117.45 67.0526 118.109 66.9766 118.725 67.1468C119.341 67.317 119.867 67.7201 120.19 68.2706C120.514 68.821 120.609 69.4755 120.457 70.0952L114.081 92.9917C113.929 93.5181 113.607 93.9798 113.166 94.3051C112.724 94.6305 112.187 94.8012 111.638 94.7907V94.7907Z" fill="white"/>
<path d="M45.4302 166.766C29.8411 166.766 9.17041 155.743 9.17041 147.435V128.153C9.17041 122.625 17.3666 116.999 25.0873 113.581L27.0872 118.062C18.6124 121.824 14.0881 126.338 14.0881 128.153V147.435C14.0881 151.148 30.0214 161.86 45.4302 161.86C60.839 161.86 76.7887 151.148 76.7887 147.435V128.153C76.7887 126.338 72.2644 121.824 63.6748 118.046L65.6747 113.565C73.3791 116.983 81.6244 122.625 81.6244 128.153V147.435C81.7064 155.743 61.0357 166.766 45.4302 166.766Z" fill="#28292B"/>
<path d="M45.4133 113.725C33.0043 113.725 23.6279 103.781 23.6279 90.6155V83.7139C23.6279 70.6301 33.0043 60.6047 45.4133 60.6047C57.8223 60.6047 67.2151 70.5484 67.2151 83.7139V90.6155C67.2151 103.781 57.8387 113.725 45.4133 113.725ZM45.4133 65.5111C35.5779 65.5111 28.5456 73.1651 28.5456 83.7139V90.6155C28.5456 101.164 35.6435 108.818 45.4133 108.818C55.1831 108.818 62.2974 101.164 62.2974 90.6155V83.7139C62.2974 73.1651 55.1995 65.5111 45.4133 65.5111Z" fill="#28292B"/>
<path d="M93.2797 89.734C92.6288 89.7281 92.0058 89.4701 91.5421 89.0144L78.166 75.6689L91.5421 62.3236C92.0082 61.8902 92.6248 61.6543 93.2618 61.6655C93.8988 61.6768 94.5065 61.9342 94.957 62.3837C95.4075 62.8331 95.6656 63.4395 95.6768 64.075C95.688 64.7106 95.4516 65.3257 95.0173 65.7907L85.1819 75.6035L95.0173 85.4163C95.3607 85.7594 95.5945 86.1963 95.6892 86.6719C95.7839 87.1475 95.7353 87.6404 95.5493 88.0884C95.3634 88.5364 95.0486 88.9194 94.6447 89.189C94.2407 89.4585 93.7657 89.6027 93.2797 89.6031V89.734Z" fill="#28292B"/>
<path d="M121.425 90.0937C120.939 90.0932 120.464 89.9492 120.06 89.6796C119.656 89.41 119.341 89.027 119.155 88.579C118.969 88.131 118.921 87.6381 119.015 87.1625C119.11 86.6869 119.344 86.2499 119.687 85.9069L129.523 76.0941L119.687 66.2813C119.446 66.0567 119.252 65.7858 119.118 65.4849C118.983 65.184 118.911 64.8592 118.905 64.5298C118.899 64.2004 118.96 63.8732 119.084 63.5678C119.207 63.2623 119.392 62.9848 119.625 62.7518C119.859 62.5189 120.137 62.3353 120.443 62.2119C120.749 62.0885 121.077 62.0279 121.407 62.0337C121.737 62.0395 122.063 62.1116 122.364 62.2457C122.666 62.3798 122.937 62.5731 123.163 62.8141L136.539 76.1596L123.163 89.5049C122.68 89.916 122.058 90.1268 121.425 90.0937V90.0937Z" fill="#28292B"/>
<path d="M104.13 89.4219C103.907 89.4539 103.681 89.4539 103.458 89.4219C102.844 89.2292 102.33 88.8055 102.024 88.2407C101.718 87.6758 101.644 87.0142 101.819 86.3963L108.196 63.4997C108.274 63.1809 108.416 62.881 108.612 62.6178C108.809 62.3546 109.056 62.1335 109.34 61.9675C109.624 61.8015 109.938 61.694 110.265 61.6515C110.591 61.6089 110.922 61.6321 111.24 61.7196C111.557 61.8072 111.853 61.9573 112.111 62.1612C112.369 62.3651 112.583 62.6186 112.741 62.9066C112.899 63.1946 112.997 63.5113 113.03 63.8379C113.063 64.1646 113.03 64.4946 112.933 64.8082L106.556 87.7047C106.398 88.2175 106.074 88.6637 105.635 88.9742C105.197 89.2847 104.668 89.4421 104.13 89.4219V89.4219Z" fill="#28292B"/>
<path d="M97.4939 120.612C96.8011 120.617 96.1284 120.38 95.5925 119.942C95.0839 119.515 94.7175 118.943 94.5418 118.304C94.3662 117.664 94.3895 116.986 94.6089 116.36L96.2481 110.276H86.5603C85.9082 110.276 85.2827 110.018 84.8216 109.558C84.3605 109.098 84.1015 108.474 84.1015 107.823C84.1015 107.172 84.3605 106.548 84.8216 106.088C85.2827 105.628 85.9082 105.37 86.5603 105.37H98.6578C99.1637 105.373 99.6607 105.502 100.104 105.745C100.548 105.987 100.924 106.336 101.199 106.76C101.471 107.179 101.644 107.655 101.704 108.151C101.763 108.647 101.708 109.15 101.543 109.622L100.592 113.024L110.542 105.926C111.054 105.561 111.667 105.366 112.296 105.37H143.065C147.048 105.37 150.294 101.445 150.294 96.6038V53.4111C150.294 48.5047 147.015 44.645 143.065 44.645H71.6596C67.6599 44.645 64.4143 48.5701 64.4143 53.4111C64.4143 54.0617 64.1552 54.6857 63.6941 55.1458C63.233 55.6059 62.6076 55.8643 61.9554 55.8643C61.3033 55.8643 60.6779 55.6059 60.2167 55.1458C59.7556 54.6857 59.4966 54.0617 59.4966 53.4111C59.4966 45.8716 64.9552 39.7386 71.6596 39.7386H143.065C149.753 39.7386 155.211 45.8716 155.211 53.4111V96.6038C155.211 104.143 149.753 110.276 143.065 110.276H113.001L99.2643 120.089C98.745 120.447 98.1248 120.63 97.4939 120.612V120.612Z" fill="#28292B"/>
</svg>