<svg class="services-prototyping__StyledSVG-ono30s-0 hewcEo" width="87" height="65" viewBox="0 0 87 75" aria-labelledby="prototyping" xmlns="http://www.w3.org/2000/svg" fill="none"><title>Prototyping</title><mask id="path-1-inside-1" fill="white"><path d="M0 2C0 0.89543 0.895431 0 2 0H85C86.1046 0 87 0.895431 87 2V65H0V2Z"></path></mask><path d="M0 2C0 0.89543 0.895431 0 2 0H85C86.1046 0 87 0.895431 87 2V65H0V2Z" stroke="#1B2652" stroke-width="6" mask="url(#path-1-inside-1)"></path><line y1="50.5" x2="87" y2="50.5" stroke="#1B2652" stroke-width="3"></line><rect x="7.5" y="7.5" width="71" height="8" stroke="#1B2652" stroke-width="3"></rect><rect x="43.5" y="21.5" width="35" height="8" stroke="#1B2652" stroke-width="3"></rect><rect x="7.5" y="21.5" width="29" height="23" stroke="#F04C22" stroke-width="3" class="services-prototyping__StyledRect-ono30s-1"></rect><rect x="43.5" y="36.5" width="35" height="8" stroke="#1B2652" stroke-width="3"></rect><circle cx="44" cy="57" r="1.5" stroke="#1B2652" stroke-width="3"></circle><path d="M31.0309 73.5L34.1079 63.5H52.8921L55.9691 73.5H31.0309Z" stroke="#1B2652" stroke-width="3"></path></svg>