<svg xmlns:dc="http://purl.org/dc/elements/1.1/" xmlns:cc="http://creativecommons.org/ns#" xmlns:rdf="http://www.w3.org/1999/02/22-rdf-syntax-ns#" xmlns:svg="http://www.w3.org/2000/svg" xmlns="http://www.w3.org/2000/svg" xmlns:sodipodi="http://sodipodi.sourceforge.net/DTD/sodipodi-0.dtd" xmlns:inkscape="http://www.inkscape.org/namespaces/inkscape" version="1.1" id="Layer_1" x="0px" y="0px" viewBox="0 0 478.7 478.2" xml:space="preserve" sodipodi:docname="1E-LOGO-01.svg" width="478.70001" height="478.20001" inkscape:version="0.92.2 (5c3e80d, 2017-08-06)"><metadata id="metadata21"><rdf:RDF><cc:Work rdf:about=""><dc:format>image/svg+xml</dc:format><dc:type rdf:resource="http://purl.org/dc/dcmitype/StillImage"/></cc:Work></rdf:RDF></metadata><defs id="defs19"/><sodipodi:namedview pagecolor="#ffffff" bordercolor="#666666" borderopacity="1" objecttolerance="10" gridtolerance="10" guidetolerance="10" inkscape:pageopacity="0" inkscape:pageshadow="2" inkscape:window-width="640" inkscape:window-height="480" id="namedview17" showgrid="false" inkscape:zoom="0.48390403" inkscape:cx="239.40001" inkscape:cy="239.04999" inkscape:window-x="0" inkscape:window-y="0" inkscape:window-maximized="0" inkscape:current-layer="Layer_1"/><style type="text/css" id="style2">
	.st0{fill-rule:evenodd;clip-rule:evenodd;fill:#F37037;}
	.st1{fill-rule:evenodd;clip-rule:evenodd;fill:#FFFFFF;}
	.st2{fill-rule:evenodd;clip-rule:evenodd;}
</style><g id="g14" transform="translate(-4.7,-4.7)"><path class="st0" d="M 483.4,243.6 C 483.4,375.8 376.5,482.9 244,482.9 112.2,482.9 4.7,375.9 4.7,243.6 4.8,111.7 112.2,4.7 244,4.7 c 132.5,0 239.4,107 239.4,238.9 z" id="path4" inkscape:connector-curvature="0" style="clip-rule:evenodd;fill:#f37037;fill-rule:evenodd"/><path class="st1" d="m 244,22 h -0.5 v 443.6 h 0.5 c 122.8,0 222.1,-99.3 222.1,-222 C 466.1,121.3 366.8,22 244,22 Z" id="path6" inkscape:connector-curvature="0" style="clip-rule:evenodd;fill:#ffffff;fill-rule:evenodd"/><path class="st2" d="m 22,243.6 c 0,122.7 99.3,222 221.5,222 V 22 C 121.4,22 22,121.3 22,243.6 Z" id="path8" inkscape:connector-curvature="0" style="clip-rule:evenodd;fill-rule:evenodd"/><polygon class="st0" points="299.2,221 385,221 385,262.3 299.2,262.3 299.2,306.8 393.3,306.8 393.3,346.6 243.5,346.6 243.5,139.5 390.3,139.5 390.3,180.3 299.2,180.3 " id="polygon10" style="clip-rule:evenodd;fill:#f37037;fill-rule:evenodd"/><polygon class="st1" points="189,192.8 189,346.6 243.5,346.6 243.5,139.5 194.8,139.5 130,175 147.3,214.4 " id="polygon12" style="clip-rule:evenodd;fill:#ffffff;fill-rule:evenodd"/></g></svg>