<?xml version="1.0" encoding="utf-8"?>
<!-- Generator: Adobe Illustrator 19.2.1, SVG Export Plug-In . SVG Version: 6.00 Build 0)  -->
<svg version="1.1" id="layer" xmlns="http://www.w3.org/2000/svg" xmlns:xlink="http://www.w3.org/1999/xlink" x="0px" y="0px"
	 viewBox="0 0 652 652" style="enable-background:new 0 0 652 652;" xml:space="preserve">
<style type="text/css">
	.st0{fill:#009FE5;}
	.st1{fill:#FFFFFF;}
</style>
<rect x="71.2" y="70.6" class="st0" width="500" height="500"/>
<path class="st1" d="M390.3,234.4l-24.6,101.3h-0.5l-24.6-101.3h-75.5v115.1c-1.7-22.1-15.3-33.2-29.7-38.1
	c12.8-7,21.2-16.4,21.2-33.8c0-17.6-9.7-43.2-55-43.2h-94.3v172.3h97.7c29.1,0,57.7-16.3,60.1-47.9v47.9h50.2V296.2h0.5l29.9,110.5
	h39.6l29.9-110.5h0.5v110.5h50.2V234.4H390.3z M160.3,275.4h28c10.9,0,18.1,3.1,18.1,11.8c0,11.1-7,14.2-18.1,14.2h-28V275.4z
	 M191.4,365.7h-31.1v-32.1h33.3c12.5,0,18.6,5.5,18.6,15.7C212.2,362.5,202.5,365.7,191.4,365.7 M482.1,234.4h53.1v172.3h-53.1
	V234.4z"/>
</svg>
