<?xml version="1.0" encoding="utf-8"?>
<!-- Generator: Adobe Illustrator 19.2.1, SVG Export Plug-In . SVG Version: 6.00 Build 0)  -->
<svg version="1.1" id="layer" xmlns="http://www.w3.org/2000/svg" xmlns:xlink="http://www.w3.org/1999/xlink" x="0px" y="0px"
	 viewBox="0 0 652 652" style="enable-background:new 0 0 652 652;" xml:space="preserve">
<style type="text/css">
	.st0{fill:#FF5F00;}
	.st1{fill:#1A1A1A;}
</style>
<polygon class="st0" points="436.8,320.7 491.2,320.7 626,155.5 515.3,155.5 436.8,251.7 "/>
<path class="st1" d="M436.8,331.9v69.1l78.5,96.1H626L491.2,331.9H436.8z M130.9,220.1h13.4c12.6,0,23.1,8.8,23.1,19.7
	c0,10.8-10.5,19.7-23.1,19.7h-13.4v61.3h37.8c53.5-3.1,87.8-38.8,87.8-82.5c0-45.7-37.5-82.7-95.3-82.7h-30.3V220.1z M425.7,320.7
	v-69.1l-78.5-96.1H236.6l134.8,165.2H425.7z M425.7,331.9h-54.3L275.8,449l-95.7-117.2h-49.2v75.3l73.4,89.9H315h32.3l78.5-96.1
	V331.9z M119.8,320.7V155.5h-19.1H26v165.2H119.8z M26,331.9h93.7v165.6H26V331.9z"/>
</svg>
